<?xml version="1.0" standalone="no"?>
<!DOCTYPE svg PUBLIC "-//W3C//DTD SVG 20010904//EN"
 "http://www.w3.org/TR/2001/REC-SVG-20010904/DTD/svg10.dtd">
<svg version="1.0" xmlns="http://www.w3.org/2000/svg"
 width="1452.000000pt" height="1452.000000pt" viewBox="0 0 1452.000000 1452.000000"
 preserveAspectRatio="xMidYMid meet">
<metadata>
Created by potrace 1.14, written by Peter Selinger 2001-2017
</metadata>
<g transform="translate(0.000000,1452.000000) scale(0.100000,-0.100000)"
fill="#000000" stroke="none">
<path d="M3264 7260 l1 -7255 63 -3 c35 -2 68 1 75 6 7 5 37 9 67 8 30 -2 58
2 62 7 3 6 38 10 77 10 39 0 71 3 71 7 0 4 32 7 71 8 39 1 76 5 82 10 7 5 40
8 75 6 37 -1 60 2 56 7 -3 6 9 10 28 9 18 0 52 0 76 0 23 -1 42 3 42 8 0 4 37
8 81 7 48 0 83 4 85 10 3 6 38 10 84 9 44 0 80 3 80 8 0 4 36 8 79 8 44 0 82
4 85 8 2 4 44 7 93 7 48 -1 91 3 94 8 7 10 99 16 99 6 0 -4 12 -4 27 0 16 3
43 6 61 5 17 -1 30 1 28 5 -3 4 41 7 97 7 56 0 111 4 122 8 11 5 72 11 135 13
146 4 195 8 209 17 6 4 11 4 11 -1 0 -4 45 -7 100 -5 55 2 100 7 100 10 0 4
74 8 165 8 108 0 168 3 176 11 8 8 11 835 11 3099 1 1923 4 3078 10 3059 5
-16 13 -39 18 -50 5 -11 28 -74 50 -140 23 -66 46 -129 51 -140 4 -11 27 -74
49 -140 23 -66 67 -190 97 -275 31 -85 68 -191 83 -235 16 -44 49 -138 75
-210 55 -156 114 -321 125 -355 5 -14 31 -90 60 -170 54 -151 131 -369 230
-650 32 -91 82 -230 110 -310 28 -80 82 -233 120 -340 37 -107 77 -220 88
-250 11 -30 51 -140 87 -245 100 -285 125 -355 145 -410 10 -27 42 -117 70
-200 29 -82 56 -159 60 -170 9 -21 116 -320 130 -365 18 -56 121 -346 129
-365 6 -11 13 -31 16 -45 3 -14 13 -41 20 -60 8 -19 53 -145 101 -280 47 -135
124 -353 170 -485 47 -132 87 -246 89 -252 2 -7 15 -12 27 -11 23 1 302 -9
458 -17 47 -3 132 -7 190 -10 58 -3 134 -8 170 -10 36 -3 103 -7 150 -10 47
-3 112 -8 145 -11 33 -3 89 -7 125 -9 36 -2 88 -6 115 -9 28 -3 77 -8 110 -10
179 -15 212 -18 235 -21 14 -2 63 -6 110 -10 47 -4 99 -8 115 -10 17 -2 57 -7
90 -10 33 -3 76 -7 95 -10 19 -2 60 -7 90 -10 30 -3 71 -8 90 -10 19 -2 64 -7
100 -10 36 -4 76 -8 90 -10 14 -2 54 -7 90 -11 36 -4 67 -8 70 -9 3 -1 37 -5
75 -9 39 -5 77 -9 85 -11 8 -1 39 -6 68 -10 l52 -7 0 7260 0 7259 -1435 0
-1435 0 -2 -3204 -3 -3204 -32 93 c-45 133 -83 241 -90 258 -3 8 -7 20 -9 25
-1 6 -32 93 -69 195 -37 102 -70 196 -75 210 -9 28 -162 461 -235 665 -74 207
-116 327 -130 370 -8 22 -34 96 -58 165 -25 69 -86 242 -136 385 -51 143 -98
276 -105 295 -8 19 -35 96 -61 170 -25 74 -55 158 -65 185 -10 28 -36 102 -58
165 -23 63 -77 216 -120 340 -44 124 -124 349 -177 500 -53 151 -100 284 -105
295 -4 11 -22 63 -40 115 -18 52 -36 104 -41 115 -4 11 -22 58 -38 105 -26 77
-68 195 -211 600 -26 74 -80 227 -119 340 -40 113 -78 221 -86 240 -8 19 -55
152 -105 295 -50 143 -94 263 -98 267 -4 4 -649 9 -1434 10 l-1426 3 2 -7255z"/>
</g>
</svg>
